<svg xmlns="http://www.w3.org/2000/svg" viewBox="0 0 1920 480" width="1920" height="480">
  <defs>
    <linearGradient id="bg" x1="0%" y1="0%" x2="100%" y2="100%">
      <stop offset="0%" stop-color="#0a0a0c"/>
      <stop offset="50%" stop-color="#12131a"/>
      <stop offset="100%" stop-color="#0d0e12"/>
    </linearGradient>
    <radialGradient id="glow1" cx="30%" cy="50%" r="40%">
      <stop offset="0%" stop-color="#1a1d2e" stop-opacity="0.8"/>
      <stop offset="100%" stop-color="#0a0a0c" stop-opacity="0"/>
    </radialGradient>
    <radialGradient id="glow2" cx="70%" cy="30%" r="35%">
      <stop offset="0%" stop-color="#151822" stop-opacity="0.6"/>
      <stop offset="100%" stop-color="#0a0a0c" stop-opacity="0"/>
    </radialGradient>
    <radialGradient id="nodeGlow" cx="50%" cy="50%" r="50%">
      <stop offset="0%" stop-color="#2a3040" stop-opacity="1"/>
      <stop offset="40%" stop-color="#1a1d28" stop-opacity="0.8"/>
      <stop offset="100%" stop-color="#0d0e14" stop-opacity="0"/>
    </radialGradient>
    <linearGradient id="lineGrad" x1="0%" y1="0%" x2="100%" y2="0%">
      <stop offset="0%" stop-color="#1e2235" stop-opacity="0"/>
      <stop offset="50%" stop-color="#2a3050" stop-opacity="0.6"/>
      <stop offset="100%" stop-color="#1e2235" stop-opacity="0"/>
    </linearGradient>
    <linearGradient id="accentLine" x1="0%" y1="0%" x2="100%" y2="0%">
      <stop offset="0%" stop-color="#252840" stop-opacity="0"/>
      <stop offset="20%" stop-color="#3a4060" stop-opacity="0.4"/>
      <stop offset="80%" stop-color="#3a4060" stop-opacity="0.4"/>
      <stop offset="100%" stop-color="#252840" stop-opacity="0"/>
    </linearGradient>
    <filter id="softGlow" x="-50%" y="-50%" width="200%" height="200%">
      <feGaussianBlur in="SourceGraphic" stdDeviation="2" result="blur"/>
      <feMerge>
        <feMergeNode in="blur"/>
        <feMergeNode in="SourceGraphic"/>
      </feMerge>
    </filter>
    <filter id="subtleBlur" x="-20%" y="-20%" width="140%" height="140%">
      <feGaussianBlur in="SourceGraphic" stdDeviation="1.5"/>
    </filter>
  </defs>

  <rect width="1920" height="480" fill="url(#bg)"/>
  <rect width="1920" height="480" fill="url(#glow1)"/>
  <rect width="1920" height="480" fill="url(#glow2)"/>

  <g opacity="0.15">
    <line x1="0" y1="120" x2="1920" y2="120" stroke="#1a1d28" stroke-width="0.5"/>
    <line x1="0" y1="240" x2="1920" y2="240" stroke="#1a1d28" stroke-width="0.5"/>
    <line x1="0" y1="360" x2="1920" y2="360" stroke="#1a1d28" stroke-width="0.5"/>
    <line x1="480" y1="0" x2="480" y2="480" stroke="#1a1d28" stroke-width="0.5"/>
    <line x1="960" y1="0" x2="960" y2="480" stroke="#1a1d28" stroke-width="0.5"/>
    <line x1="1440" y1="0" x2="1440" y2="480" stroke="#1a1d28" stroke-width="0.5"/>
  </g>

  <g opacity="0.08">
    <line x1="0" y1="60" x2="1920" y2="60" stroke="#252840" stroke-width="0.3"/>
    <line x1="0" y1="180" x2="1920" y2="180" stroke="#252840" stroke-width="0.3"/>
    <line x1="0" y1="300" x2="1920" y2="300" stroke="#252840" stroke-width="0.3"/>
    <line x1="0" y1="420" x2="1920" y2="420" stroke="#252840" stroke-width="0.3"/>
    <line x1="240" y1="0" x2="240" y2="480" stroke="#252840" stroke-width="0.3"/>
    <line x1="720" y1="0" x2="720" y2="480" stroke="#252840" stroke-width="0.3"/>
    <line x1="1200" y1="0" x2="1200" y2="480" stroke="#252840" stroke-width="0.3"/>
    <line x1="1680" y1="0" x2="1680" y2="480" stroke="#252840" stroke-width="0.3"/>
  </g>

  <g opacity="0.12">
    <line x1="200" y1="0" x2="200" y2="480" stroke="#1e2030" stroke-width="0.4"/>
    <line x1="600" y1="0" x2="600" y2="480" stroke="#1e2030" stroke-width="0.4"/>
    <line x1="1000" y1="0" x2="1000" y2="480" stroke="#1e2030" stroke-width="0.4"/>
    <line x1="1400" y1="0" x2="1400" y2="480" stroke="#1e2030" stroke-width="0.4"/>
    <line x1="1800" y1="0" x2="1800" y2="480" stroke="#1e2030" stroke-width="0.4"/>
  </g>

  <g filter="url(#subtleBlur)" opacity="0.25">
    <circle cx="960" cy="240" r="80" fill="url(#nodeGlow)"/>
    <circle cx="720" cy="200" r="40" fill="#1a1d28"/>
    <circle cx="1200" cy="280" r="35" fill="#1a1d28"/>
    <circle cx="850" cy="320" r="25" fill="#1a1d28"/>
    <circle cx="1080" cy="180" r="30" fill="#1a1d28"/>
    <circle cx="1100" cy="340" r="20" fill="#1a1d28"/>
    <circle cx="780" cy="160" r="18" fill="#1a1d28"/>
    <circle cx="1150" cy="220" r="22" fill="#1a1d28"/>
  </g>

  <g opacity="0.4">
    <line x1="960" y1="240" x2="720" y2="200" stroke="url(#lineGrad)" stroke-width="0.8"/>
    <line x1="960" y1="240" x2="1200" y2="280" stroke="url(#lineGrad)" stroke-width="0.8"/>
    <line x1="960" y1="240" x2="850" y2="320" stroke="url(#lineGrad)" stroke-width="0.8"/>
    <line x1="960" y1="240" x2="1080" y2="180" stroke="url(#lineGrad)" stroke-width="0.8"/>
    <line x1="960" y1="240" x2="1100" y2="340" stroke="url(#lineGrad)" stroke-width="0.6"/>
    <line x1="960" y1="240" x2="780" y2="160" stroke="url(#lineGrad)" stroke-width="0.6"/>
    <line x1="960" y1="240" x2="1150" y2="220" stroke="url(#lineGrad)" stroke-width="0.6"/>
    <line x1="720" y1="200" x2="780" y2="160" stroke="#1e2235" stroke-width="0.5" opacity="0.5"/>
    <line x1="720" y1="200" x2="850" y2="320" stroke="#1e2235" stroke-width="0.5" opacity="0.5"/>
    <line x1="1200" y1="280" x2="1080" y2="180" stroke="#1e2235" stroke-width="0.5" opacity="0.5"/>
    <line x1="1200" y1="280" x2="1150" y2="220" stroke="#1e2235" stroke-width="0.5" opacity="0.5"/>
    <line x1="1200" y1="280" x2="1100" y2="340" stroke="#1e2235" stroke-width="0.5" opacity="0.5"/>
  </g>

  <g filter="url(#softGlow)">
    <circle cx="960" cy="240" r="4" fill="#3a4060"/>
    <circle cx="960" cy="240" r="2" fill="#5a6080"/>
    <circle cx="720" cy="200" r="3" fill="#2a3050"/>
    <circle cx="720" cy="200" r="1.5" fill="#4a5070"/>
    <circle cx="1200" cy="280" r="3" fill="#2a3050"/>
    <circle cx="1200" cy="280" r="1.5" fill="#4a5070"/>
    <circle cx="850" cy="320" r="2" fill="#2a3050"/>
    <circle cx="1080" cy="180" r="2.5" fill="#2a3050"/>
    <circle cx="1100" cy="340" r="2" fill="#2a3050"/>
    <circle cx="780" cy="160" r="2" fill="#2a3050"/>
    <circle cx="1150" cy="220" r="2" fill="#2a3050"/>
  </g>

  <g opacity="0.06">
    <polygon points="960,100 1000,140 1000,200 960,240 920,200 920,140" fill="none" stroke="#4a5070" stroke-width="0.5"/>
    <polygon points="960,380 1000,340 1000,280 960,240 920,280 920,340" fill="none" stroke="#4a5070" stroke-width="0.5"/>
    <polygon points="700,240 740,200 800,200 840,240 800,280 740,280" fill="none" stroke="#4a5070" stroke-width="0.5"/>
    <polygon points="1220,240 1180,200 1120,200 1080,240 1120,280 1180,280" fill="none" stroke="#4a5070" stroke-width="0.5"/>
  </g>

  <line x1="400" y1="440" x2="1520" y2="440" stroke="url(#accentLine)" stroke-width="0.5" opacity="0.3"/>
  <line x1="600" y1="40" x2="1320" y2="40" stroke="url(#accentLine)" stroke-width="0.5" opacity="0.2"/>

  <g opacity="0.12">
    <circle cx="300" cy="150" r="60" fill="none" stroke="#2a3050" stroke-width="0.5"/>
    <circle cx="300" cy="150" r="90" fill="none" stroke="#1e2235" stroke-width="0.3"/>
    <circle cx="1620" cy="350" r="70" fill="none" stroke="#2a3050" stroke-width="0.5"/>
    <circle cx="1620" cy="350" r="100" fill="none" stroke="#1e2235" stroke-width="0.3"/>
  </g>

  <g opacity="0.08">
    <line x1="280" y1="120" x2="320" y2="180" stroke="#3a4060" stroke-width="0.5"/>
    <line x1="280" y1="180" x2="320" y2="120" stroke="#3a4060" stroke-width="0.5"/>
    <line x1="1600" y1="320" x2="1640" y2="380" stroke="#3a4060" stroke-width="0.5"/>
    <line x1="1600" y1="380" x2="1640" y2="320" stroke="#3a4060" stroke-width="0.5"/>
  </g>

  <g opacity="0.15">
    <circle cx="200" cy="400" r="2" fill="#3a4060"/>
    <circle cx="400" cy="80" r="1.5" fill="#3a4060"/>
    <circle cx="1500" cy="100" r="2" fill="#3a4060"/>
    <circle cx="1700" cy="380" r="1.5" fill="#3a4060"/>
    <circle cx="100" cy="240" r="1.5" fill="#3a4060"/>
    <circle cx="1820" cy="200" r="2" fill="#3a4060"/>
  </g>

  <text x="960" y="455" font-family="'SF Pro Display', -apple-system, BlinkMacSystemFont, 'Segoe UI', Roboto, sans-serif" font-size="10" font-weight="300" letter-spacing="6" fill="#2a3050" text-anchor="middle" opacity="0.6">NEXUS</text>
</svg>